# xmcd
#
# Track frame offsets: 
#        150
#        12622
#        28228
#        43432
#        57151
#        72330
#        84930
#        97550
#        111489
#        128172
#        146852
#        161400
#
# Disc length: 2297 seconds
#
# Revision: 0
# Processed by: cddbd v1.5.1PL0 Copyright (c) Steve Scherf et al.
# Submitted via: ExactAudioCopy v0.95a5
#
DISCID=a708f70c
DTITLE=Fisher and Company - Fisher and Company
DYEAR=2004
DGENRE=Bluegrass
TTITLE0=Roses In The Snow
TTITLE1=Crazy Love
TTITLE2=Back On My Mind
TTITLE3=Endless Road Of Heare Brack
TTITLE4=Shall We Gather At The River
TTITLE5=Old Man At The Mill
TTITLE6=Southland
TTITLE7=Mama
TTITLE8=Keep On Walkin
TTITLE9=Look What I'm Trading For A Mansion
TTITLE10=Someone Is Looking For Someone Like You
TTITLE11=AMERICA ( My Country Tis Of Thee)
EXTD=
EXTT0=
EXTT1=
EXTT2=
EXTT3=
EXTT4=
EXTT5=
EXTT6=
EXTT7=
EXTT8=
EXTT9=
EXTT10=
EXTT11=
PLAYORDER=
